<?xml version="1.0" standalone="no"?>
<!DOCTYPE svg PUBLIC "-//W3C//DTD SVG 20010904//EN"
 "http://www.w3.org/TR/2001/REC-SVG-20010904/DTD/svg10.dtd">
<svg version="1.0" xmlns="http://www.w3.org/2000/svg"
 width="2007.000000pt" height="1783.000000pt" viewBox="0 0 2007.000000 1783.000000"
 preserveAspectRatio="xMidYMid meet">
<metadata>
Created by potrace 1.15, written by Peter Selinger 2001-2017
</metadata>
<g transform="translate(0.000000,1783.000000) scale(0.100000,-0.100000)"
fill="#000000" stroke="none">
<path d="M10980 17823 c-237 -23 -383 -71 -698 -227 -382 -190 -469 -215 -647
-181 -49 9 -205 54 -345 100 -354 115 -379 120 -640 120 -183 0 -232 -3 -325
-22 -195 -40 -342 -90 -507 -174 -184 -92 -281 -169 -466 -363 -170 -180 -340
-344 -393 -378 -89 -59 -200 -77 -547 -88 -322 -10 -426 -24 -582 -76 -351
-117 -678 -350 -891 -636 -68 -92 -153 -257 -244 -473 -123 -295 -171 -371
-343 -547 -157 -161 -244 -216 -562 -353 -204 -89 -279 -126 -375 -190 -298
-198 -562 -553 -684 -920 -59 -179 -72 -275 -81 -630 -10 -329 -18 -397 -67
-524 -13 -36 -33 -91 -43 -121 -34 -101 -120 -284 -164 -350 -58 -88 -118
-158 -276 -324 -203 -215 -298 -345 -370 -510 l-33 -74 -80 -37 c-178 -80
-406 -222 -587 -365 -138 -108 -425 -398 -524 -528 -325 -427 -506 -891 -506
-1292 0 -445 237 -843 610 -1026 333 -164 707 -134 1044 83 37 24 70 42 73 39
2 -2 -7 -39 -20 -83 -54 -170 -62 -233 -61 -463 0 -194 3 -228 27 -343 36
-170 86 -317 158 -463 94 -193 155 -271 425 -539 189 -187 254 -259 297 -325
49 -78 142 -266 188 -382 36 -91 59 -241 70 -455 18 -372 43 -506 128 -714
120 -290 339 -575 587 -763 104 -79 303 -179 509 -256 279 -105 398 -172 528
-299 116 -113 185 -225 302 -496 113 -260 201 -404 334 -547 244 -260 576
-455 911 -535 96 -23 134 -25 455 -33 387 -9 456 -18 610 -75 50 -19 104 -37
120 -41 17 -4 39 -13 50 -20 11 -7 52 -24 90 -39 145 -54 253 -129 457 -318
262 -242 344 -303 521 -388 407 -194 913 -232 1292 -98 48 17 162 62 253 101
191 80 270 110 362 133 136 35 571 47 710 19 41 -8 147 -40 235 -70 439 -152
509 -170 705 -180 283 -14 603 51 870 177 206 98 267 146 565 439 249 246 312
296 449 361 44 21 92 45 106 53 51 30 246 107 319 126 93 23 206 37 371 45
307 15 441 35 604 92 324 113 644 346 851 621 87 116 161 262 256 509 94 244
160 376 229 458 27 33 74 89 104 125 29 36 102 112 162 170 127 123 190 164
484 310 113 56 249 130 302 166 332 221 608 638 715 1079 14 59 17 133 19 475
1 442 4 470 60 638 19 56 34 109 34 117 0 9 5 23 10 33 6 9 28 63 49 119 53
141 122 246 289 441 192 223 261 317 325 442 142 274 204 558 195 891 l-5 175
44 18 c75 31 185 110 258 184 89 92 162 198 235 342 82 163 191 442 197 506
10 97 -47 198 -134 236 -24 10 -43 21 -43 23 0 3 10 39 21 82 29 107 24 234
-13 315 -72 155 -219 242 -408 243 -151 0 -291 -53 -452 -168 -43 -31 -78 -55
-78 -53 0 10 57 199 97 321 72 223 93 329 100 500 13 369 -95 757 -296 1060
-76 116 -166 212 -354 381 -234 209 -304 290 -390 451 -29 54 -58 107 -64 118
-7 11 -35 68 -62 127 -78 166 -101 264 -126 543 -20 222 -32 313 -55 410 -97
413 -423 851 -800 1076 -97 57 -213 106 -440 183 -215 74 -388 154 -465 216
-27 22 -81 65 -120 94 -110 84 -278 254 -332 336 -28 41 -90 149 -138 240
-168 314 -261 443 -419 582 -237 207 -545 365 -843 430 -121 26 -365 30 -668
10 -287 -19 -400 -2 -740 115 -193 66 -264 109 -515 312 -258 207 -388 284
-602 356 -225 74 -527 110 -748 88z m395 -449 c210 -30 431 -106 585 -202 50
-31 165 -115 254 -186 205 -163 265 -206 352 -250 152 -77 481 -171 637 -182
56 -4 185 1 327 11 261 19 388 16 541 -15 396 -81 816 -349 1025 -655 34 -50
108 -175 164 -280 57 -104 126 -224 153 -265 78 -115 209 -238 441 -414 77
-59 230 -127 446 -201 344 -117 503 -209 701 -405 209 -207 364 -453 442 -705
33 -105 53 -232 72 -440 17 -194 30 -284 52 -370 15 -56 96 -247 129 -305 8
-14 35 -64 60 -111 68 -127 132 -206 267 -332 185 -171 336 -318 368 -359 l29
-36 -56 -31 -55 -30 -74 30 c-40 16 -80 29 -89 29 -18 0 -276 231 -382 341
-84 89 -149 179 -197 275 -20 39 -47 85 -61 101 -14 17 -26 37 -26 43 0 7 -20
56 -44 109 -87 190 -107 277 -136 581 -34 350 -54 440 -145 625 -149 307 -410
570 -681 689 -44 19 -167 64 -274 101 -291 100 -417 164 -550 279 -30 26 -66
54 -80 61 -14 7 -84 71 -156 141 -149 147 -212 235 -344 484 -118 223 -192
330 -301 435 -200 193 -444 327 -711 389 -136 32 -244 39 -408 26 -397 -30
-540 -24 -733 31 -56 16 -112 29 -125 29 -12 0 -33 7 -45 14 -12 8 -63 28
-114 45 -167 54 -276 119 -486 289 -272 219 -362 274 -549 337 -154 51 -310
75 -491 75 -282 0 -399 -32 -733 -200 -358 -181 -488 -221 -656 -200 -124 15
-244 46 -473 124 -259 88 -326 101 -510 101 -232 -1 -447 -48 -651 -144 -186
-88 -228 -122 -509 -406 -329 -333 -366 -359 -569 -401 -78 -17 -317 -33 -481
-34 -324 -1 -582 -89 -856 -291 -230 -171 -361 -346 -484 -649 -69 -169 -146
-328 -198 -409 -65 -99 -264 -310 -366 -387 -103 -77 -198 -127 -452 -239
-105 -46 -226 -105 -269 -131 -255 -154 -487 -452 -598 -766 -53 -148 -63
-226 -72 -553 -9 -335 -23 -437 -84 -594 -18 -47 -36 -99 -40 -116 -10 -45
-144 -324 -174 -363 l-18 -23 -109 28 c-61 15 -112 28 -114 30 -2 1 15 30 38
63 23 33 60 99 82 148 22 48 48 105 59 127 37 81 101 272 116 350 10 52 18
185 24 380 6 242 12 320 29 402 68 327 255 655 513 898 150 141 264 209 591
351 270 117 351 171 518 348 140 147 194 237 304 506 124 302 203 429 380 606
194 196 434 347 680 430 163 54 234 64 575 79 200 9 342 20 389 30 124 27 179
73 531 441 69 72 165 161 215 197 173 128 413 229 674 284 111 23 149 27 321
27 234 0 273 -7 610 -118 359 -118 448 -130 605 -78 50 17 203 86 340 154 138
68 286 136 330 150 225 74 488 92 760 52z m-928 -1123 c24 -12 54 -38 68 -59
59 -90 56 -265 -7 -354 -10 -13 -9 -21 5 -35 39 -44 47 -87 47 -253 l0 -160
-55 0 -55 0 0 133 c0 206 -18 239 -128 241 l-57 1 -3 -192 -2 -193 -54 0 -55
0 -3 443 c-2 243 -1 446 1 451 2 5 61 6 130 4 104 -4 133 -9 168 -27z m609 11
c6 -4 35 -142 64 -307 29 -165 56 -303 60 -308 3 -4 59 122 122 280 l116 288
51 3 c45 3 51 1 51 -16 0 -36 -90 -865 -94 -870 -3 -2 -28 -1 -55 3 -61 8 -58
-11 -32 235 11 96 18 176 17 177 -1 1 -37 -87 -81 -195 l-80 -197 -40 4 c-22
1 -43 7 -46 13 -3 5 -21 97 -40 204 -18 107 -36 186 -40 177 -3 -10 -14 -98
-24 -195 l-18 -178 -46 0 c-25 0 -51 4 -57 8 -8 5 2 132 35 445 l46 437 40 0
c22 0 45 -4 51 -8z m-1283 -379 c26 -192 47 -357 47 -368 -2 -153 -181 -246
-309 -162 -69 46 -79 80 -133 470 -26 193 -46 352 -44 354 1 2 27 4 56 6 l54
2 47 -345 c55 -391 55 -393 132 -398 56 -4 77 20 77 88 0 38 -67 553 -85 657
-6 34 -2 36 85 41 l26 2 47 -347z m2345 218 c89 -21 165 -41 168 -43 5 -6 -15
-108 -22 -108 -2 0 -53 12 -114 26 -61 14 -116 24 -123 21 -19 -7 -72 -248
-57 -257 6 -4 60 -17 121 -31 73 -15 109 -28 109 -37 0 -7 -5 -33 -11 -58 -9
-34 -15 -43 -28 -40 -41 13 -226 54 -229 51 -3 -3 -62 -246 -62 -257 0 -4 54
-19 121 -35 l121 -28 -6 -43 c-10 -75 -2 -74 -196 -28 -155 37 -175 44 -173
61 1 11 45 204 97 429 53 225 96 410 96 412 0 8 31 2 188 -35z m-3261 -52 c53
-14 107 -63 134 -123 33 -76 129 -479 129 -543 0 -86 -30 -139 -101 -176 -47
-25 -63 -28 -120 -25 -81 4 -127 35 -164 108 -28 56 -145 501 -145 552 0 95
51 168 140 198 66 23 68 23 127 9z m4063 -180 c124 -45 227 -84 229 -85 5 -4
-17 -75 -29 -95 -7 -10 -28 -5 -96 19 -48 17 -89 30 -90 29 -2 -1 -60 -160
-129 -351 -69 -192 -129 -355 -133 -362 -5 -9 -19 -7 -59 8 l-52 19 38 107
c22 59 80 221 131 361 50 139 88 257 83 261 -4 4 -37 17 -73 30 -103 37 -101
35 -86 73 7 17 16 40 19 50 4 9 10 17 14 17 4 0 109 -37 233 -81z m-4803 -70
c47 -17 94 -70 129 -144 l33 -70 -47 -22 c-26 -12 -50 -22 -54 -22 -3 -1 -20
28 -36 63 -17 35 -42 72 -56 81 -25 17 -29 17 -71 0 -87 -33 -86 -61 16 -328
94 -245 101 -260 131 -281 47 -33 130 -3 142 51 8 37 -29 163 -49 163 -7 0
-34 -9 -60 -20 -26 -11 -50 -20 -54 -20 -9 0 -41 77 -41 96 0 15 219 99 230
88 4 -5 25 -52 45 -104 59 -153 60 -241 2 -307 -41 -47 -107 -76 -172 -76 -81
0 -140 42 -184 131 -34 67 -169 424 -181 477 -11 50 -5 104 15 145 42 82 175
132 262 99z m10788 -4787 c18 -11 41 -39 58 -74 55 -109 35 -281 -63 -542
-190 -508 -430 -919 -735 -1257 -58 -65 -61 -72 -92 -186 -45 -166 -56 -240
-51 -351 6 -161 59 -237 163 -236 109 1 211 91 317 280 99 177 170 325 218
454 126 338 307 578 540 716 190 113 379 113 477 1 118 -134 30 -389 -212
-615 -63 -59 -101 -84 -208 -136 -114 -56 -280 -116 -323 -116 -25 0 -39 -81
-39 -235 0 -137 2 -155 24 -203 13 -29 37 -62 54 -74 61 -44 192 -31 297 30
70 40 176 148 242 246 64 97 131 230 197 398 45 112 59 132 103 143 21 5 30 2
42 -17 19 -29 18 -33 -56 -223 -170 -433 -334 -634 -583 -717 -57 -19 -92 -23
-185 -23 -111 0 -117 1 -190 36 -124 59 -201 154 -232 285 l-12 52 -59 -92
c-106 -164 -244 -278 -386 -320 -78 -23 -207 -21 -274 4 -113 42 -187 171
-187 328 l0 47 -23 -41 c-114 -199 -257 -335 -405 -386 -53 -18 -88 -23 -167
-23 -116 1 -152 13 -218 74 -54 50 -83 114 -98 218 -10 63 -14 74 -23 59 -163
-271 -328 -392 -577 -421 -112 -12 -246 27 -335 100 -67 55 -115 141 -139 249
-6 29 -7 29 -45 -35 -150 -248 -372 -385 -576 -352 -52 8 -67 6 -124 -16 -51
-19 -84 -25 -155 -25 -148 -1 -246 43 -321 141 l-32 42 -37 -44 c-44 -55 -143
-126 -207 -150 -64 -24 -196 -17 -253 12 -77 41 -125 108 -148 209 l-13 55
-38 -55 c-54 -78 -161 -176 -231 -211 -56 -28 -68 -30 -171 -30 -109 0 -113 1
-184 37 l-72 37 -57 -38 c-87 -59 -157 -91 -235 -108 -208 -43 -368 71 -410
293 l-13 69 -18 -35 c-74 -143 -230 -316 -325 -363 -74 -36 -145 -48 -213 -37
-181 29 -269 177 -238 398 19 132 63 255 168 462 101 201 116 252 76 258 -60
9 -219 -122 -355 -291 -213 -265 -438 -666 -464 -824 -6 -41 -8 -43 -41 -43
-67 0 -127 52 -153 134 -17 52 -8 178 20 285 12 46 61 186 110 310 116 299
147 401 121 401 -42 0 -280 -232 -400 -390 -114 -152 -210 -314 -327 -554 -57
-119 -104 -202 -117 -211 -13 -8 -71 -21 -130 -29 -84 -11 -116 -19 -147 -40
-22 -14 -40 -22 -40 -17 0 5 13 39 30 75 16 36 25 66 20 66 -5 0 -12 -4 -15
-10 -10 -16 -126 -76 -180 -94 -286 -92 -543 28 -615 286 l-16 57 -46 -77
c-125 -207 -271 -321 -421 -330 -91 -6 -141 14 -204 81 -58 61 -92 140 -101
236 l-7 64 -60 -98 c-73 -118 -174 -229 -249 -274 -137 -82 -293 -74 -401 21
-55 48 -80 95 -104 190 l-17 70 -39 -63 c-84 -139 -194 -259 -275 -303 -100
-54 -213 -41 -296 36 -63 58 -87 121 -93 253 l-6 110 -34 -55 c-63 -104 -163
-230 -233 -295 -88 -81 -161 -118 -245 -123 -73 -5 -110 7 -168 54 -138 110
-167 409 -69 709 66 201 220 461 351 593 180 180 448 295 650 278 162 -13 323
-117 323 -208 0 -38 -40 -78 -78 -78 -24 0 -34 9 -60 50 -52 83 -136 109 -239
74 -230 -78 -578 -528 -708 -916 -48 -144 -61 -234 -46 -303 28 -124 135 -113
275 28 109 108 201 258 367 595 205 415 215 425 429 420 63 -2 129 1 145 6
l30 9 -26 -29 c-44 -49 -84 -114 -147 -240 -161 -322 -242 -588 -229 -751 6
-84 22 -99 76 -77 20 8 53 32 74 52 96 93 263 391 370 661 173 438 418 693
748 777 86 22 260 15 341 -14 l56 -20 76 172 c101 229 238 561 320 776 94 243
136 304 231 329 22 5 108 9 191 8 l151 -2 -31 -37 c-147 -171 -826 -1635
-1007 -2168 -96 -285 -89 -440 19 -440 116 0 259 187 414 540 30 69 68 160 83
203 111 315 354 606 599 717 170 77 332 58 413 -48 83 -109 41 -297 -112 -489
-35 -45 -93 -106 -129 -135 -107 -89 -290 -177 -451 -218 -67 -17 -71 -19 -84
-56 -11 -28 -15 -85 -15 -194 -1 -147 0 -158 24 -204 43 -84 107 -113 209 -95
219 40 398 249 571 668 141 343 280 634 330 694 18 21 51 48 73 60 38 20 54
22 167 19 100 -2 139 2 193 17 37 11 67 18 67 16 0 -2 -33 -24 -72 -49 -108
-67 -170 -154 -319 -448 -77 -154 -109 -223 -92 -203 5 6 31 37 58 70 69 85
376 395 465 470 85 71 187 130 241 140 51 9 122 -23 149 -67 42 -69 21 -145
-116 -438 -54 -115 -59 -130 -34 -100 159 184 267 287 422 403 238 178 455
278 552 253 l25 -6 -46 -98 c-287 -612 -413 -957 -413 -1127 0 -104 15 -130
72 -122 111 15 241 177 396 494 38 78 81 176 96 219 102 290 316 574 530 703
113 68 171 85 281 86 92 0 104 -2 153 -29 126 -70 182 -193 182 -397 0 -235
-75 -457 -236 -699 -34 -52 -83 -119 -109 -149 -52 -61 -50 -71 20 -102 53
-24 138 -24 192 1 131 59 271 275 426 656 63 153 177 512 177 554 0 35 -25 87
-62 127 l-20 21 79 8 c43 4 131 8 196 8 115 1 119 0 139 -24 14 -18 19 -34 15
-60 -2 -19 -87 -264 -187 -545 -177 -493 -183 -513 -184 -590 -1 -98 15 -131
70 -141 77 -14 165 37 242 142 43 57 49 74 60 144 17 117 57 188 126 224 24
12 44 49 123 226 52 116 134 310 183 431 49 121 110 254 135 295 92 148 190
221 308 230 111 8 209 -47 193 -109 -8 -34 -31 -40 -102 -26 -72 14 -101 9
-145 -28 -53 -45 -79 -114 -79 -212 0 -124 24 -206 111 -376 106 -207 130
-278 136 -396 6 -110 -8 -172 -62 -278 -37 -73 -59 -105 -123 -180 l-44 -51
34 6 c99 18 219 109 299 226 66 97 215 406 254 528 30 96 131 292 196 384 243
340 595 503 782 363 23 -18 52 -52 65 -77 20 -39 23 -56 20 -126 -4 -70 -10
-93 -45 -165 -74 -155 -206 -299 -350 -384 -89 -52 -251 -118 -343 -139 -34
-8 -64 -17 -66 -19 -16 -16 -36 -184 -32 -272 9 -210 95 -293 257 -251 91 23
153 59 231 133 163 153 324 471 406 797 132 530 418 1265 598 1535 140 211
319 315 433 252 140 -79 135 -302 -16 -679 -106 -265 -180 -423 -286 -608
-123 -214 -294 -451 -426 -589 -55 -57 -59 -66 -89 -170 -58 -208 -72 -353
-45 -459 27 -101 74 -146 156 -146 94 0 201 87 288 234 58 98 180 340 231 456
18 41 54 158 81 260 119 462 314 986 506 1361 163 319 376 476 528 391z
m-16280 -196 c297 -81 469 -306 514 -676 32 -254 -15 -598 -140 -1038 -23 -79
-39 -145 -36 -148 2 -3 54 96 115 218 126 255 217 417 339 603 264 402 391
534 615 640 108 51 186 68 293 63 76 -3 98 -8 144 -33 134 -73 191 -207 191
-450 0 -298 -52 -616 -190 -1160 -43 -170 -77 -311 -76 -312 1 -1 35 53 76
120 272 448 597 927 802 1184 388 486 781 734 995 628 89 -45 133 -132 141
-275 8 -175 -30 -325 -178 -685 -262 -641 -402 -1082 -471 -1485 -30 -180 -33
-470 -5 -570 65 -235 205 -333 451 -316 65 4 97 3 115 -7 34 -17 33 -54 -3
-81 -26 -19 -42 -21 -170 -21 -116 0 -158 5 -227 23 -372 101 -550 408 -501
867 34 318 133 647 416 1385 163 425 183 482 211 595 39 162 30 299 -21 319
-162 62 -566 -317 -952 -894 -289 -433 -835 -1429 -968 -1770 -55 -140 -88
-201 -134 -247 -78 -78 -181 -104 -259 -64 -96 49 -95 87 7 301 342 716 538
1406 617 2176 32 310 20 475 -38 556 -80 113 -253 59 -434 -135 -106 -114
-376 -510 -559 -822 -109 -185 -289 -538 -380 -745 -96 -219 -269 -654 -430
-1080 -76 -201 -149 -380 -162 -398 -52 -70 -180 -121 -271 -107 -51 8 -102
50 -102 85 0 11 40 103 89 203 325 667 687 1809 780 2462 28 197 34 323 22
448 -26 263 -108 414 -268 490 -67 32 -70 32 -213 31 -128 0 -155 -3 -235 -27
-124 -38 -338 -144 -470 -232 -493 -329 -913 -839 -1059 -1287 -95 -289 -116
-598 -56 -816 65 -236 232 -411 445 -467 136 -35 327 -11 470 59 272 134 532
553 538 866 2 104 -15 167 -59 219 -57 66 -116 80 -290 70 -86 -5 -127 15
-122 59 4 38 66 67 176 82 244 35 426 -83 473 -308 18 -91 7 -260 -26 -362
-35 -111 -105 -246 -177 -341 -163 -217 -447 -419 -674 -480 -110 -30 -296
-30 -409 0 -291 77 -521 297 -615 587 -39 123 -50 195 -50 345 0 302 102 611
312 949 372 597 1064 1102 1658 1210 127 24 330 21 425 -4z m11924 -796 c105
-53 118 -194 28 -297 -92 -103 -223 -112 -304 -20 -61 69 -53 170 20 254 71
80 174 106 256 63z m4209 -2429 c37 -11 80 -22 96 -26 27 -6 28 -8 22 -48 -12
-72 -75 -247 -127 -352 -59 -119 -130 -218 -309 -425 -220 -256 -270 -347
-379 -695 -51 -162 -53 -185 -55 -605 -2 -336 -5 -405 -19 -460 -96 -362 -263
-653 -512 -888 -117 -111 -231 -184 -480 -307 -115 -57 -245 -127 -287 -155
-84 -55 -191 -158 -329 -317 -143 -164 -185 -240 -305 -553 -103 -271 -159
-373 -291 -532 -199 -240 -506 -446 -810 -541 -107 -34 -249 -54 -478 -67
-376 -21 -439 -37 -780 -206 -71 -35 -159 -86 -195 -113 -36 -27 -153 -138
-260 -246 -269 -271 -377 -350 -612 -447 -270 -111 -597 -160 -856 -128 -119
15 -241 49 -468 130 -109 39 -235 80 -279 91 -166 41 -559 34 -745 -14 -52
-14 -185 -63 -296 -110 -357 -151 -476 -180 -739 -180 -209 0 -369 25 -560 88
-279 91 -389 163 -726 474 -154 142 -278 228 -393 272 -45 17 -90 36 -101 43
-11 7 -33 16 -50 20 -16 4 -70 22 -120 41 -133 49 -260 65 -531 65 -316 0
-418 12 -604 72 -234 75 -483 225 -669 404 -175 168 -256 288 -376 557 -137
310 -195 407 -307 513 -122 116 -222 173 -469 268 -207 79 -300 120 -379 166
-268 156 -531 451 -668 750 -106 229 -128 343 -152 773 -11 181 -27 291 -56
382 -28 85 -161 353 -210 423 -26 37 -147 166 -269 287 -122 121 -232 234
-243 252 l-22 31 67 23 c38 12 85 30 105 40 l37 19 234 -233 c263 -261 303
-314 410 -537 127 -266 150 -363 172 -730 15 -263 22 -323 49 -425 57 -220
223 -494 407 -670 165 -158 254 -210 584 -340 312 -123 420 -186 567 -331 115
-113 194 -238 313 -498 123 -269 158 -334 234 -428 168 -209 417 -383 683
-476 161 -57 215 -64 578 -72 368 -9 438 -18 595 -78 44 -17 94 -34 110 -37
17 -3 53 -17 80 -30 324 -154 345 -168 588 -394 195 -180 285 -248 412 -310
207 -101 430 -152 675 -153 231 0 334 25 655 162 271 115 438 160 594 160 36
0 80 4 96 8 17 5 111 5 210 1 215 -9 307 -29 595 -134 224 -81 303 -102 439
-117 247 -27 579 39 829 166 127 65 214 136 422 346 225 227 323 306 474 382
55 28 111 57 124 66 13 8 51 25 85 38 34 12 90 34 125 49 136 57 263 79 557
95 238 13 362 31 475 69 239 81 505 260 665 450 121 144 167 229 275 512 117
304 167 395 298 547 39 46 74 91 77 102 4 11 10 20 14 20 5 0 57 48 117 108
137 134 214 186 489 324 246 123 348 187 448 278 219 201 402 535 454 825 13
75 14 138 9 376 -7 321 1 439 40 574 14 50 32 117 41 150 8 33 22 74 30 90 8
17 26 62 40 100 61 171 140 292 351 538 158 184 209 253 262 357 41 81 90 214
110 298 6 28 16 52 22 52 5 0 40 -9 76 -19z m-3314 -2471 c31 -19 56 -38 56
-43 0 -4 -12 -23 -26 -42 l-25 -34 -47 30 c-59 37 -105 39 -128 4 -45 -69 17
-155 111 -155 23 0 60 13 98 34 111 61 179 57 262 -16 54 -48 75 -89 75 -148
0 -89 -80 -170 -168 -170 -40 0 -129 39 -155 68 -15 17 -15 21 9 54 l26 36 49
-30 c54 -34 91 -38 118 -14 45 40 32 103 -28 143 -47 32 -70 29 -163 -17 -119
-59 -188 -53 -273 21 -85 75 -98 185 -32 258 67 72 144 79 241 21z m-467 -392
l32 -31 -69 -78 -70 -77 82 -76 83 -76 71 76 c75 82 83 84 126 37 16 -17 14
-22 -52 -97 l-69 -78 47 -43 c26 -23 64 -56 85 -74 l37 -33 44 48 c23 27 54
62 68 78 l25 29 36 -27 c21 -16 34 -33 30 -40 -13 -22 -188 -216 -195 -216
-11 0 -543 473 -543 482 0 9 187 227 195 228 2 0 19 -14 37 -32z m-8696 -243
c35 -36 72 -80 82 -98 38 -69 13 -151 -68 -226 -99 -91 -178 -93 -269 -7 -21
20 -41 36 -45 36 -3 0 -55 -50 -116 -110 l-111 -110 -32 33 -33 34 258 256
c142 141 261 257 264 257 4 0 35 -29 70 -65z m8779 -661 c0 -5 -14 -23 -30
-39 l-30 -29 -29 29 c-16 17 -131 136 -255 265 l-226 234 33 34 32 33 252
-258 c139 -142 252 -263 253 -269z m-8270 185 c0 -13 -329 -669 -336 -669 -3
0 -20 12 -39 27 l-33 27 46 92 46 93 -27 29 c-59 61 -65 61 -155 -8 l-81 -62
-35 27 c-20 15 -36 30 -36 34 1 3 135 108 298 232 l297 226 28 -19 c15 -11 27
-24 27 -29z m7526 5 c58 -28 132 -118 151 -184 13 -49 20 -60 42 -65 14 -3 36
-13 48 -21 31 -20 185 -204 180 -217 -2 -6 -17 -21 -34 -34 l-31 -24 -78 95
c-91 111 -120 128 -170 101 -77 -41 -77 -41 30 -171 53 -64 96 -119 96 -123 0
-3 -15 -18 -34 -33 l-34 -27 -231 282 c-127 155 -231 285 -231 288 0 3 29 29
65 58 112 91 162 107 231 75z m-7140 -311 c-3 -7 -96 -144 -207 -303 l-201
-290 -30 17 c-16 10 -34 23 -39 29 -6 7 17 47 64 115 41 57 135 193 211 302
l137 197 35 -26 c20 -16 33 -33 30 -41z m6672 1 c12 -19 20 -38 18 -43 -3 -4
-42 -32 -86 -61 l-80 -53 16 -26 c83 -128 108 -160 118 -154 6 4 43 28 83 55
40 26 76 48 80 48 4 0 19 -17 32 -37 18 -29 20 -38 10 -44 -8 -4 -47 -31 -87
-59 l-73 -51 21 -32 c12 -18 39 -60 61 -94 l40 -63 90 60 89 60 26 -41 c14
-22 24 -42 22 -43 -55 -40 -250 -167 -252 -164 -2 1 -94 140 -206 307 -151
228 -199 306 -189 312 8 4 64 42 124 83 61 41 112 75 115 76 3 0 15 -16 28
-36z m-6412 -153 l30 -18 -32 -229 c-17 -126 -31 -230 -30 -231 1 -2 46 73
100 166 130 225 114 207 160 181 24 -15 35 -28 32 -37 -10 -26 -358 -623 -363
-623 -17 0 -63 37 -63 51 0 9 14 112 31 229 17 116 29 214 27 215 -2 2 -48
-75 -103 -172 -55 -96 -103 -179 -106 -185 -4 -6 -22 -2 -48 12 l-42 21 38 68
c114 203 329 571 333 571 3 0 19 -8 36 -19z m5943 -165 c33 -18 84 -73 107
-117 17 -34 17 -34 -38 -64 -27 -15 -28 -14 -54 30 -47 81 -87 94 -136 45 -26
-27 -29 -35 -23 -68 16 -87 56 -115 166 -113 45 1 98 -3 120 -9 104 -28 175
-191 125 -288 -33 -64 -123 -106 -194 -91 -19 4 -47 20 -64 35 -29 28 -88 111
-88 124 0 8 79 45 84 39 2 -2 15 -23 30 -47 36 -57 66 -71 111 -49 41 20 52
53 36 106 -19 66 -38 75 -166 81 -106 5 -116 7 -156 35 -27 19 -54 51 -72 85
-25 47 -28 64 -25 117 5 73 25 107 84 140 45 26 112 30 153 9z m-390 -533 c78
-177 141 -326 141 -332 0 -14 -71 -44 -81 -34 -10 11 -289 647 -289 660 0 12
72 43 81 34 4 -3 70 -151 148 -328z m-4455 173 c46 -19 66 -52 66 -106 0 -70
-27 -135 -79 -193 l-47 -52 13 -64 c7 -36 15 -66 17 -68 2 -3 9 13 16 34 7 21
16 42 20 46 9 10 90 -12 90 -25 0 -18 -52 -134 -76 -171 l-24 -37 19 -75 c10
-41 16 -75 12 -75 -3 0 -28 8 -54 17 -38 14 -50 23 -54 43 -5 25 -7 26 -67 22
-123 -8 -206 57 -214 169 -8 104 49 187 156 229 l33 13 -7 57 c-13 119 54 245
134 249 7 1 28 -5 46 -13z m3946 -35 c55 -29 83 -82 154 -290 75 -219 82 -274
43 -332 -12 -19 -42 -44 -67 -56 -86 -44 -172 -22 -221 55 -33 53 -159 423
-159 469 0 68 37 123 105 154 51 24 101 24 145 0z m-450 -457 c44 -186 83
-347 86 -356 4 -13 -4 -19 -32 -27 -20 -6 -40 -8 -44 -6 -4 3 -65 86 -135 186
-70 99 -129 179 -131 176 -2 -2 16 -90 42 -196 25 -106 43 -199 40 -206 -4
-11 -73 -31 -82 -23 -5 5 -164 686 -164 702 0 13 29 26 60 26 9 0 73 -82 145
-185 71 -101 131 -183 133 -180 2 2 -17 91 -42 198 -25 106 -46 198 -46 204 0
8 78 33 87 28 2 -1 39 -154 83 -341z m-2467 213 c3 -12 16 -122 28 -244 13
-123 25 -223 29 -223 3 0 46 100 96 223 l90 222 44 -3 c24 -2 46 -5 49 -7 4
-5 -267 -684 -279 -698 -4 -5 -22 -4 -41 0 l-34 9 -37 345 c-48 445 -48 405 6
401 36 -3 45 -8 49 -25z m1807 -4 c0 -5 20 -165 45 -358 25 -192 45 -353 45
-356 0 -4 -18 -9 -40 -11 l-40 -4 -112 202 c-62 111 -114 201 -116 199 -2 -1
9 -96 24 -209 14 -114 25 -209 22 -211 -2 -2 -22 -7 -45 -11 -39 -6 -41 -5
-47 22 -14 73 -89 695 -84 699 3 3 21 8 39 11 l34 6 104 -186 c56 -102 109
-193 116 -202 8 -12 4 47 -15 192 -15 115 -25 212 -23 217 2 4 24 7 49 7 24 0
44 -3 44 -7z m-1154 -130 c-3 -49 -10 -191 -16 -318 -6 -126 -13 -254 -16
-282 l-5 -53 -46 0 -46 0 6 113 c4 61 12 228 18 370 l13 257 49 0 50 0 -7 -87z
m562 35 l3 -47 -103 -3 -103 -3 -3 -30 c-2 -16 -1 -67 3 -112 l7 -83 104 0
104 0 0 -45 0 -45 -82 0 c-127 0 -128 -1 -128 -75 0 -34 3 -83 6 -109 l7 -46
103 0 104 0 0 -44 0 -43 -82 -6 c-46 -4 -115 -7 -154 -7 l-72 0 -8 333 c-5
182 -9 348 -9 367 l0 35 135 6 c74 3 142 5 150 4 11 0 16 -14 18 -47z"/>
<path d="M10260 16019 l0 -141 65 4 c92 6 108 24 113 123 7 124 -18 155 -123
155 l-55 0 0 -141z"/>
<path d="M8755 15928 c-60 -33 -59 -75 11 -346 58 -226 73 -262 110 -282 55
-30 134 19 134 84 0 25 -52 239 -111 458 -15 56 -54 98 -92 98 -18 0 -41 -6
-52 -12z"/>
<path d="M18802 10778 c-125 -130 -360 -661 -613 -1388 -23 -64 -20 -62 63 55
223 313 452 761 559 1093 31 99 52 272 32 272 -5 0 -23 -15 -41 -32z"/>
<path d="M17888 10723 c-98 -103 -254 -425 -436 -898 -92 -241 -194 -526 -190
-531 7 -6 162 221 243 356 154 258 299 565 378 800 39 113 63 253 49 289 -7
21 -9 20 -44 -16z"/>
<path d="M19478 9713 c-122 -93 -281 -305 -393 -524 -41 -80 -52 -109 -41
-109 26 0 147 49 216 87 204 111 359 330 361 509 2 100 -44 111 -143 37z"/>
<path d="M16635 9571 c-118 -53 -301 -281 -445 -555 l-63 -119 29 7 c138 35
295 128 396 235 133 141 214 355 162 429 -18 27 -27 27 -79 3z"/>
<path d="M14908 8993 l-146 -338 29 -25 c36 -31 46 -59 58 -159 14 -113 55
-187 132 -245 l37 -27 27 33 c115 136 143 386 80 713 -15 77 -37 195 -49 263
l-22 123 -146 -338z"/>
<path d="M13280 9293 c-77 -38 -191 -151 -265 -263 -242 -363 -357 -901 -208
-969 57 -26 165 5 245 72 l27 22 -32 64 c-25 51 -33 81 -36 139 -6 132 43 206
147 219 59 7 118 -21 146 -69 17 -28 19 -28 30 -11 24 35 97 216 122 302 71
245 70 417 -1 488 -43 43 -98 45 -175 6z"/>
<path d="M10072 9175 c-75 -33 -248 -226 -352 -393 -54 -87 -152 -274 -146
-279 6 -7 149 48 213 81 139 74 253 186 319 317 58 116 76 234 42 277 -13 16
-35 15 -76 -3z"/>
<path d="M8610 9083 c-302 -104 -747 -759 -753 -1108 -2 -126 28 -185 96 -185
112 0 254 163 442 505 74 136 292 572 354 708 l30 68 -34 15 c-43 18 -78 17
-135 -3z"/>
<path d="M14732 8354 c-19 -41 -15 -124 8 -162 22 -36 72 -62 120 -62 38 0 38
9 -1 46 -38 36 -66 81 -94 150 -22 53 -22 53 -33 28z"/>
<path d="M6127 4342 l-78 -79 40 -36 c23 -20 51 -37 64 -37 55 0 146 97 132
141 -7 22 -63 89 -74 89 -3 0 -42 -35 -84 -78z"/>
<path d="M14187 3898 l-37 -33 72 -87 71 -87 29 20 c71 51 73 103 4 175 -54
55 -87 58 -139 12z"/>
<path d="M8338 2619 c-48 -25 -70 -59 -72 -109 -1 -57 36 -93 97 -94 25 -1 49
2 53 7 8 7 -25 205 -35 212 -3 1 -23 -6 -43 -16z"/>
<path d="M12353 2895 c-36 -25 -29 -74 37 -269 69 -203 72 -210 105 -232 43
-28 114 10 115 63 0 32 -126 393 -148 422 -23 32 -77 39 -109 16z"/>
</g>
</svg>
